<svg width="720" height="721" viewBox="0 0 720 721" fill="none" xmlns="http://www.w3.org/2000/svg">
<g filter="url(#filter0_dddd_201_124)">
<rect x="99" y="104" width="512" height="512" fill="#17733F"/>
<rect x="100.5" y="105.5" width="509" height="509" stroke="#17733F" stroke-width="3"/>
<rect x="100.5" y="105.5" width="509" height="509" stroke="black" stroke-opacity="0.2" stroke-width="3"/>
</g>
<g filter="url(#filter1_ddd_201_124)">
<rect x="11" y="264" width="512" height="512" transform="rotate(-29.627 11 264)" fill="#5BADFF" fill-opacity="0.64" shape-rendering="crispEdges"/>
<rect x="11.6818" y="264.187" width="511" height="511" transform="rotate(-29.627 11.6818 264.187)" stroke="#17733F" shape-rendering="crispEdges"/>
</g>
<rect y="399" width="512" height="512" transform="rotate(-51.1198 0 399)" fill="#FE0B0B" fill-opacity="0.64"/>
<path d="M219.926 364.631C219.831 363.589 219.41 362.779 218.662 362.202C217.923 361.615 216.867 361.321 215.494 361.321C214.585 361.321 213.828 361.439 213.222 361.676C212.616 361.913 212.161 362.24 211.858 362.656C211.555 363.063 211.399 363.532 211.389 364.062C211.37 364.498 211.455 364.882 211.645 365.213C211.844 365.545 212.128 365.838 212.497 366.094C212.876 366.34 213.33 366.558 213.861 366.747C214.391 366.937 214.988 367.102 215.651 367.244L218.151 367.812C219.59 368.125 220.859 368.542 221.957 369.062C223.065 369.583 223.993 370.204 224.741 370.923C225.499 371.643 226.072 372.472 226.46 373.409C226.848 374.347 227.047 375.398 227.057 376.562C227.047 378.4 226.583 379.976 225.665 381.293C224.746 382.609 223.425 383.617 221.702 384.318C219.988 385.019 217.919 385.369 215.494 385.369C213.061 385.369 210.939 385.005 209.131 384.276C207.322 383.546 205.916 382.438 204.912 380.952C203.908 379.465 203.392 377.585 203.364 375.312H210.097C210.153 376.25 210.404 377.031 210.849 377.656C211.295 378.281 211.905 378.755 212.682 379.077C213.468 379.399 214.377 379.56 215.409 379.56C216.356 379.56 217.161 379.432 217.824 379.176C218.496 378.92 219.012 378.565 219.372 378.111C219.732 377.656 219.917 377.135 219.926 376.548C219.917 375.999 219.746 375.53 219.415 375.142C219.083 374.744 218.572 374.403 217.881 374.119C217.199 373.826 216.328 373.556 215.267 373.31L212.227 372.599C209.708 372.022 207.724 371.089 206.276 369.801C204.827 368.504 204.107 366.752 204.116 364.545C204.107 362.746 204.59 361.17 205.565 359.815C206.541 358.461 207.89 357.405 209.614 356.648C211.337 355.89 213.302 355.511 215.509 355.511C217.762 355.511 219.718 355.895 221.375 356.662C223.042 357.42 224.334 358.485 225.253 359.858C226.171 361.231 226.64 362.822 226.659 364.631H219.926ZM240.793 385.412C238.501 385.412 236.531 384.943 234.884 384.006C233.245 383.059 231.981 381.742 231.091 380.057C230.21 378.362 229.77 376.397 229.77 374.162C229.77 371.918 230.21 369.953 231.091 368.267C231.981 366.572 233.245 365.256 234.884 364.318C236.531 363.371 238.501 362.898 240.793 362.898C243.084 362.898 245.049 363.371 246.688 364.318C248.335 365.256 249.599 366.572 250.48 368.267C251.37 369.953 251.815 371.918 251.815 374.162C251.815 376.397 251.37 378.362 250.48 380.057C249.599 381.742 248.335 383.059 246.688 384.006C245.049 384.943 243.084 385.412 240.793 385.412ZM240.835 380.17C241.669 380.17 242.374 379.915 242.952 379.403C243.529 378.892 243.97 378.182 244.273 377.273C244.585 376.364 244.741 375.312 244.741 374.119C244.741 372.907 244.585 371.847 244.273 370.938C243.97 370.028 243.529 369.318 242.952 368.807C242.374 368.295 241.669 368.04 240.835 368.04C239.973 368.04 239.244 368.295 238.648 368.807C238.061 369.318 237.611 370.028 237.298 370.938C236.995 371.847 236.844 372.907 236.844 374.119C236.844 375.312 236.995 376.364 237.298 377.273C237.611 378.182 238.061 378.892 238.648 379.403C239.244 379.915 239.973 380.17 240.835 380.17ZM255.374 385V363.182H262.121V367.159H262.348C262.746 365.72 263.394 364.65 264.294 363.949C265.194 363.239 266.24 362.884 267.433 362.884C267.755 362.884 268.087 362.907 268.428 362.955C268.768 362.992 269.086 363.054 269.379 363.139V369.176C269.048 369.062 268.612 368.973 268.072 368.906C267.542 368.84 267.069 368.807 266.652 368.807C265.828 368.807 265.085 368.991 264.422 369.361C263.768 369.721 263.252 370.227 262.874 370.881C262.504 371.525 262.32 372.282 262.32 373.153V385H255.374ZM272.21 385V363.182H278.957V367.159H279.184C279.582 365.72 280.23 364.65 281.13 363.949C282.03 363.239 283.076 362.884 284.269 362.884C284.591 362.884 284.923 362.907 285.263 362.955C285.604 362.992 285.922 363.054 286.215 363.139V369.176C285.884 369.062 285.448 368.973 284.908 368.906C284.378 368.84 283.905 368.807 283.488 368.807C282.664 368.807 281.921 368.991 281.258 369.361C280.604 369.721 280.088 370.227 279.71 370.881C279.34 371.525 279.156 372.282 279.156 373.153V385H272.21ZM293.957 393.182C293.123 393.182 292.337 393.116 291.599 392.983C290.86 392.86 290.226 392.694 289.695 392.486L291.229 387.443C291.911 387.67 292.527 387.803 293.076 387.841C293.635 387.879 294.113 387.789 294.511 387.571C294.918 387.363 295.23 386.989 295.448 386.449L295.718 385.795L287.962 363.182H295.235L299.255 378.75H299.482L303.559 363.182H310.874L302.65 387.088C302.252 388.281 301.689 389.332 300.96 390.241C300.24 391.16 299.307 391.88 298.161 392.401C297.025 392.921 295.623 393.182 293.957 393.182ZM346.89 355.909V385H340.924L329.347 368.21H329.163V385H322.131V355.909H328.183L339.631 372.67H339.873V355.909H346.89ZM361.496 385.412C359.204 385.412 357.234 384.943 355.587 384.006C353.948 383.059 352.684 381.742 351.794 380.057C350.913 378.362 350.473 376.397 350.473 374.162C350.473 371.918 350.913 369.953 351.794 368.267C352.684 366.572 353.948 365.256 355.587 364.318C357.234 363.371 359.204 362.898 361.496 362.898C363.787 362.898 365.752 363.371 367.391 364.318C369.038 365.256 370.303 366.572 371.183 368.267C372.073 369.953 372.518 371.918 372.518 374.162C372.518 376.397 372.073 378.362 371.183 380.057C370.303 381.742 369.038 383.059 367.391 384.006C365.752 384.943 363.787 385.412 361.496 385.412ZM361.538 380.17C362.372 380.17 363.077 379.915 363.655 379.403C364.232 378.892 364.673 378.182 364.976 377.273C365.288 376.364 365.445 375.312 365.445 374.119C365.445 372.907 365.288 371.847 364.976 370.938C364.673 370.028 364.232 369.318 363.655 368.807C363.077 368.295 362.372 368.04 361.538 368.04C360.677 368.04 359.947 368.295 359.351 368.807C358.764 369.318 358.314 370.028 358.001 370.938C357.698 371.847 357.547 372.907 357.547 374.119C357.547 375.312 357.698 376.364 358.001 377.273C358.314 378.182 358.764 378.892 359.351 379.403C359.947 379.915 360.677 380.17 361.538 380.17ZM384.67 393.182V363.182H391.545V366.918H391.759C392.043 366.255 392.445 365.616 392.966 365C393.496 364.384 394.169 363.883 394.983 363.494C395.807 363.097 396.792 362.898 397.938 362.898C399.453 362.898 400.868 363.295 402.185 364.091C403.51 364.886 404.58 366.113 405.395 367.77C406.209 369.427 406.616 371.539 406.616 374.105C406.616 376.577 406.223 378.646 405.438 380.312C404.661 381.979 403.61 383.229 402.284 384.062C400.968 384.896 399.505 385.312 397.895 385.312C396.796 385.312 395.845 385.133 395.04 384.773C394.235 384.413 393.558 383.939 393.009 383.352C392.469 382.765 392.052 382.135 391.759 381.463H391.616V393.182H384.67ZM391.474 374.091C391.474 375.265 391.631 376.288 391.943 377.159C392.265 378.03 392.724 378.707 393.321 379.19C393.927 379.664 394.652 379.901 395.494 379.901C396.347 379.901 397.071 379.664 397.668 379.19C398.264 378.707 398.714 378.03 399.017 377.159C399.33 376.288 399.486 375.265 399.486 374.091C399.486 372.917 399.33 371.899 399.017 371.037C398.714 370.175 398.264 369.508 397.668 369.034C397.08 368.561 396.356 368.324 395.494 368.324C394.642 368.324 393.918 368.556 393.321 369.02C392.724 369.484 392.265 370.147 391.943 371.009C391.631 371.87 391.474 372.898 391.474 374.091ZM420.441 385.412C418.149 385.412 416.18 384.943 414.532 384.006C412.894 383.059 411.629 381.742 410.739 380.057C409.859 378.362 409.418 376.397 409.418 374.162C409.418 371.918 409.859 369.953 410.739 368.267C411.629 366.572 412.894 365.256 414.532 364.318C416.18 363.371 418.149 362.898 420.441 362.898C422.733 362.898 424.698 363.371 426.336 364.318C427.984 365.256 429.248 366.572 430.129 368.267C431.019 369.953 431.464 371.918 431.464 374.162C431.464 376.397 431.019 378.362 430.129 380.057C429.248 381.742 427.984 383.059 426.336 384.006C424.698 384.943 422.733 385.412 420.441 385.412ZM420.484 380.17C421.317 380.17 422.022 379.915 422.6 379.403C423.178 378.892 423.618 378.182 423.921 377.273C424.234 376.364 424.39 375.312 424.39 374.119C424.39 372.907 424.234 371.847 423.921 370.938C423.618 370.028 423.178 369.318 422.6 368.807C422.022 368.295 421.317 368.04 420.484 368.04C419.622 368.04 418.893 368.295 418.296 368.807C417.709 369.318 417.259 370.028 416.947 370.938C416.644 371.847 416.492 372.907 416.492 374.119C416.492 375.312 416.644 376.364 416.947 377.273C417.259 378.182 417.709 378.892 418.296 379.403C418.893 379.915 419.622 380.17 420.484 380.17ZM454.07 369.844L447.692 370.014C447.626 369.56 447.446 369.157 447.153 368.807C446.859 368.447 446.476 368.168 446.002 367.969C445.538 367.76 444.998 367.656 444.383 367.656C443.578 367.656 442.891 367.817 442.323 368.139C441.764 368.461 441.49 368.897 441.499 369.446C441.49 369.872 441.66 370.241 442.011 370.554C442.371 370.866 443.01 371.117 443.928 371.307L448.133 372.102C450.311 372.519 451.93 373.21 452.991 374.176C454.061 375.142 454.601 376.42 454.61 378.011C454.601 379.508 454.156 380.81 453.275 381.918C452.404 383.026 451.21 383.887 449.695 384.503C448.18 385.109 446.447 385.412 444.496 385.412C441.381 385.412 438.924 384.773 437.124 383.494C435.335 382.206 434.312 380.483 434.056 378.324L440.917 378.153C441.068 378.949 441.461 379.555 442.096 379.972C442.73 380.388 443.54 380.597 444.525 380.597C445.415 380.597 446.139 380.431 446.698 380.099C447.257 379.768 447.541 379.328 447.55 378.778C447.541 378.286 447.323 377.893 446.897 377.599C446.471 377.296 445.803 377.06 444.894 376.889L441.087 376.165C438.9 375.767 437.271 375.033 436.201 373.963C435.131 372.884 434.601 371.51 434.61 369.844C434.601 368.385 434.989 367.14 435.775 366.108C436.561 365.066 437.678 364.271 439.127 363.722C440.576 363.172 442.285 362.898 444.255 362.898C447.21 362.898 449.539 363.518 451.244 364.759C452.948 365.99 453.89 367.685 454.07 369.844ZM470.345 363.182V368.295H456.581V363.182H470.345ZM459.464 357.955H466.411V378.139C466.411 378.565 466.477 378.911 466.609 379.176C466.751 379.432 466.955 379.616 467.22 379.73C467.485 379.834 467.803 379.886 468.172 379.886C468.437 379.886 468.716 379.863 469.01 379.815C469.313 379.759 469.54 379.711 469.692 379.673L470.743 384.688C470.411 384.782 469.943 384.901 469.337 385.043C468.74 385.185 468.025 385.275 467.192 385.312C465.563 385.388 464.166 385.199 463.001 384.744C461.846 384.28 460.961 383.561 460.345 382.585C459.739 381.61 459.446 380.384 459.464 378.906V357.955ZM481.034 355.909H488.889L495.04 368.082H495.295L501.446 355.909H509.301L498.662 375.284V385H491.673V375.284L481.034 355.909ZM517.408 385.412C515.126 385.412 513.156 384.962 511.499 384.062C509.852 383.153 508.583 381.861 507.692 380.185C506.812 378.499 506.371 376.496 506.371 374.176C506.371 371.922 506.817 369.953 507.707 368.267C508.597 366.572 509.852 365.256 511.471 364.318C513.09 363.371 514.998 362.898 517.195 362.898C518.748 362.898 520.169 363.139 521.457 363.622C522.745 364.105 523.857 364.82 524.795 365.767C525.732 366.714 526.461 367.884 526.982 369.276C527.503 370.658 527.763 372.244 527.763 374.034V375.767H508.8V371.733H521.3C521.291 370.994 521.116 370.336 520.775 369.759C520.434 369.181 519.965 368.731 519.369 368.409C518.781 368.078 518.104 367.912 517.337 367.912C516.561 367.912 515.865 368.087 515.249 368.438C514.634 368.778 514.146 369.247 513.786 369.844C513.426 370.431 513.237 371.098 513.218 371.847V375.952C513.218 376.842 513.393 377.623 513.744 378.295C514.094 378.958 514.591 379.474 515.235 379.844C515.879 380.213 516.646 380.398 517.536 380.398C518.152 380.398 518.71 380.312 519.212 380.142C519.714 379.972 520.145 379.721 520.505 379.389C520.865 379.058 521.135 378.651 521.315 378.168L527.692 378.352C527.427 379.782 526.845 381.027 525.945 382.088C525.055 383.139 523.886 383.958 522.437 384.545C520.988 385.123 519.312 385.412 517.408 385.412ZM543.626 363.182V368.295H529.862V363.182H543.626ZM532.746 357.955H539.692V378.139C539.692 378.565 539.758 378.911 539.891 379.176C540.033 379.432 540.236 379.616 540.501 379.73C540.767 379.834 541.084 379.886 541.453 379.886C541.718 379.886 541.998 379.863 542.291 379.815C542.594 379.759 542.821 379.711 542.973 379.673L544.024 384.688C543.693 384.782 543.224 384.901 542.618 385.043C542.021 385.185 541.306 385.275 540.473 385.312C538.844 385.388 537.447 385.199 536.283 384.744C535.127 384.28 534.242 383.561 533.626 382.585C533.02 381.61 532.727 380.384 532.746 378.906V357.955Z" fill="white"/>
<defs>
<filter id="filter0_dddd_201_124" x="95" y="104" width="520" height="520" filterUnits="userSpaceOnUse" color-interpolation-filters="sRGB">
<feFlood flood-opacity="0" result="BackgroundImageFix"/>
<feColorMatrix in="SourceAlpha" type="matrix" values="0 0 0 0 0 0 0 0 0 0 0 0 0 0 0 0 0 0 127 0" result="hardAlpha"/>
<feOffset dy="4"/>
<feGaussianBlur stdDeviation="2"/>
<feComposite in2="hardAlpha" operator="out"/>
<feColorMatrix type="matrix" values="0 0 0 0 0 0 0 0 0 0 0 0 0 0 0 0 0 0 0.25 0"/>
<feBlend mode="normal" in2="BackgroundImageFix" result="effect1_dropShadow_201_124"/>
<feColorMatrix in="SourceAlpha" type="matrix" values="0 0 0 0 0 0 0 0 0 0 0 0 0 0 0 0 0 0 127 0" result="hardAlpha"/>
<feOffset dy="4"/>
<feGaussianBlur stdDeviation="2"/>
<feComposite in2="hardAlpha" operator="out"/>
<feColorMatrix type="matrix" values="0 0 0 0 0 0 0 0 0 0 0 0 0 0 0 0 0 0 0.25 0"/>
<feBlend mode="normal" in2="effect1_dropShadow_201_124" result="effect2_dropShadow_201_124"/>
<feColorMatrix in="SourceAlpha" type="matrix" values="0 0 0 0 0 0 0 0 0 0 0 0 0 0 0 0 0 0 127 0" result="hardAlpha"/>
<feOffset dy="4"/>
<feGaussianBlur stdDeviation="2"/>
<feComposite in2="hardAlpha" operator="out"/>
<feColorMatrix type="matrix" values="0 0 0 0 0 0 0 0 0 0 0 0 0 0 0 0 0 0 0.25 0"/>
<feBlend mode="normal" in2="effect2_dropShadow_201_124" result="effect3_dropShadow_201_124"/>
<feColorMatrix in="SourceAlpha" type="matrix" values="0 0 0 0 0 0 0 0 0 0 0 0 0 0 0 0 0 0 127 0" result="hardAlpha"/>
<feOffset dy="4"/>
<feGaussianBlur stdDeviation="2"/>
<feComposite in2="hardAlpha" operator="out"/>
<feColorMatrix type="matrix" values="0 0 0 0 0 0 0 0 0 0 0 0 0 0 0 0 0 0 0.25 0"/>
<feBlend mode="normal" in2="effect3_dropShadow_201_124" result="effect4_dropShadow_201_124"/>
<feBlend mode="normal" in="SourceGraphic" in2="effect4_dropShadow_201_124" result="shape"/>
</filter>
<filter id="filter1_ddd_201_124" x="7" y="10.892" width="706.17" height="706.17" filterUnits="userSpaceOnUse" color-interpolation-filters="sRGB">
<feFlood flood-opacity="0" result="BackgroundImageFix"/>
<feColorMatrix in="SourceAlpha" type="matrix" values="0 0 0 0 0 0 0 0 0 0 0 0 0 0 0 0 0 0 127 0" result="hardAlpha"/>
<feOffset dy="4"/>
<feGaussianBlur stdDeviation="2"/>
<feComposite in2="hardAlpha" operator="out"/>
<feColorMatrix type="matrix" values="0 0 0 0 0 0 0 0 0 0 0 0 0 0 0 0 0 0 0.25 0"/>
<feBlend mode="normal" in2="BackgroundImageFix" result="effect1_dropShadow_201_124"/>
<feColorMatrix in="SourceAlpha" type="matrix" values="0 0 0 0 0 0 0 0 0 0 0 0 0 0 0 0 0 0 127 0" result="hardAlpha"/>
<feOffset dy="4"/>
<feGaussianBlur stdDeviation="2"/>
<feComposite in2="hardAlpha" operator="out"/>
<feColorMatrix type="matrix" values="0 0 0 0 0 0 0 0 0 0 0 0 0 0 0 0 0 0 0.25 0"/>
<feBlend mode="normal" in2="effect1_dropShadow_201_124" result="effect2_dropShadow_201_124"/>
<feColorMatrix in="SourceAlpha" type="matrix" values="0 0 0 0 0 0 0 0 0 0 0 0 0 0 0 0 0 0 127 0" result="hardAlpha"/>
<feOffset dy="4"/>
<feGaussianBlur stdDeviation="2"/>
<feComposite in2="hardAlpha" operator="out"/>
<feColorMatrix type="matrix" values="0 0 0 0 0 0 0 0 0 0 0 0 0 0 0 0 0 0 0.25 0"/>
<feBlend mode="normal" in2="effect2_dropShadow_201_124" result="effect3_dropShadow_201_124"/>
<feBlend mode="normal" in="SourceGraphic" in2="effect3_dropShadow_201_124" result="shape"/>
</filter>
</defs>
</svg>
