 <svg version="1.0" xmlns="http://www.w3.org/2000/svg" width="700.000000pt" height="700.000000pt" viewBox="0 0 700.000000 700.000000" preserveAspectRatio="xMidYMid meet">
<metadata>
Created by potrace 1.12, written by Peter Selinger 2001-2015
</metadata>
<g transform="translate(0.000000,700.000000) scale(0.100000,-0.100000)" fill="#000000" stroke="none">
<path d="M2370 6990 c-501 -49 -951 -224 -1351 -525 -134 -101 -383 -350 -484
-484 -272 -362 -441 -766 -511 -1226 -28 -181 -26 -550 5 -740 109 -691 462
-1280 1012 -1695 345 -259 739 -424 1178 -492 186 -28 550 -31 726 -5 464 70
873 244 1220 522 50 39 96 75 103 80 10 5 33 -11 73 -51 l59 -58 0 -161 0
-160 1000 -1000 1000 -1000 302 303 303 302 -1000 1000 -1000 1000 -160 0
-159 0 -58 57 c-32 32 -58 61 -58 66 0 5 32 47 71 95 230 279 401 627 488 992
53 224 66 340 65 600 -1 267 -19 411 -78 641 -257 1006 -1091 1758 -2126 1919
-152 24 -478 34 -620 20z m495 -811 c385 -56 761 -250 1030 -530 258 -269 413
-582 481 -969 21 -119 24 -410 5 -530 -64 -409 -229 -739 -510 -1021 -282
-281 -611 -446 -1021 -510 -122 -19 -411 -16 -530 5 -135 24 -273 61 -361 95
-655 254 -1095 843 -1150 1540 -35 446 95 884 369 1246 25 33 84 100 131 149
306 316 726 509 1176 540 75 5 300 -4 380 -15z"></path>
</g>
</svg>